<svg width="44" height="44" viewBox="0 0 44 44" fill="none" xmlns="http://www.w3.org/2000/svg">
<path d="M16.2857 2H4.85714C3.27919 2 2 3.27919 2 4.85714V16.2857C2 17.8637 3.27919 19.1429 4.85714 19.1429H16.2857C17.8637 19.1429 19.1429 17.8637 19.1429 16.2857V4.85714C19.1429 3.27919 17.8637 2 16.2857 2Z" stroke="black" stroke-width="3"/>
<path d="M39.1429 2H27.7143C26.1363 2 24.8571 3.27919 24.8571 4.85714V16.2857C24.8571 17.8637 26.1363 19.1429 27.7143 19.1429H39.1429C40.7208 19.1429 42 17.8637 42 16.2857V4.85714C42 3.27919 40.7208 2 39.1429 2Z" stroke="black" stroke-width="3"/>
<path d="M39.1429 24.8571H27.7143C26.1363 24.8571 24.8571 26.1363 24.8571 27.7143V39.1429C24.8571 40.7208 26.1363 42 27.7143 42H39.1429C40.7208 42 42 40.7208 42 39.1429V27.7143C42 26.1363 40.7208 24.8571 39.1429 24.8571Z" stroke="black" stroke-width="3"/>
<path d="M16.2857 24.8571H4.85714C3.27919 24.8571 2 26.1363 2 27.7143V39.1429C2 40.7208 3.27919 42 4.85714 42H16.2857C17.8637 42 19.1429 40.7208 19.1429 39.1429V27.7143C19.1429 26.1363 17.8637 24.8571 16.2857 24.8571Z" stroke="black" stroke-width="3"/>
</svg>
