<svg width="27" height="27" viewBox="0 0 27 27" fill="none" xmlns="http://www.w3.org/2000/svg">
<path d="M9.92857 1H2.78571C1.79949 1 1 1.79949 1 2.78571V9.92857C1 10.9148 1.79949 11.7143 2.78571 11.7143H9.92857C10.9148 11.7143 11.7143 10.9148 11.7143 9.92857V2.78571C11.7143 1.79949 10.9148 1 9.92857 1Z" stroke="#915A3C" stroke-width="2"/>
<path d="M24.2143 1H17.0714C16.0852 1 15.2857 1.79949 15.2857 2.78571V9.92857C15.2857 10.9148 16.0852 11.7143 17.0714 11.7143H24.2143C25.2005 11.7143 26 10.9148 26 9.92857V2.78571C26 1.79949 25.2005 1 24.2143 1Z" stroke="#915A3C" stroke-width="2"/>
<path d="M24.2143 15.2857H17.0714C16.0852 15.2857 15.2857 16.0852 15.2857 17.0714V24.2143C15.2857 25.2005 16.0852 26 17.0714 26H24.2143C25.2005 26 26 25.2005 26 24.2143V17.0714C26 16.0852 25.2005 15.2857 24.2143 15.2857Z" stroke="#915A3C" stroke-width="2"/>
<path d="M9.92857 15.2857H2.78571C1.79949 15.2857 1 16.0852 1 17.0714V24.2143C1 25.2005 1.79949 26 2.78571 26H9.92857C10.9148 26 11.7143 25.2005 11.7143 24.2143V17.0714C11.7143 16.0852 10.9148 15.2857 9.92857 15.2857Z" stroke="#915A3C" stroke-width="2"/>
</svg>
