<svg width="49" height="49" viewBox="0 0 49 49" fill="none" xmlns="http://www.w3.org/2000/svg">
<path d="M22.625 22.625L22.7275 22.575C23.0481 22.4148 23.4078 22.3499 23.7642 22.3879C24.1205 22.4259 24.4585 22.5652 24.7381 22.7893C25.0177 23.0134 25.2273 23.3129 25.3419 23.6525C25.4566 23.992 25.4715 24.3572 25.385 24.705L23.615 31.795C23.5279 32.1429 23.5423 32.5085 23.6567 32.8485C23.7711 33.1884 23.9806 33.4884 24.2603 33.7129C24.5401 33.9374 24.8783 34.0769 25.235 34.115C25.5916 34.153 25.9517 34.0879 26.2725 33.9275L26.375 33.875M47 24.5C47 27.4547 46.418 30.3806 45.2873 33.1104C44.1566 35.8402 42.4992 38.3206 40.4099 40.4099C38.3206 42.4992 35.8402 44.1566 33.1104 45.2873C30.3806 46.418 27.4547 47 24.5 47C21.5453 47 18.6194 46.418 15.8896 45.2873C13.1598 44.1566 10.6794 42.4992 8.5901 40.4099C6.50078 38.3206 4.84344 35.8402 3.71271 33.1104C2.58198 30.3806 2 27.4547 2 24.5C2 18.5326 4.37053 12.8097 8.5901 8.5901C12.8097 4.37053 18.5326 2 24.5 2C30.4674 2 36.1903 4.37053 40.4099 8.5901C44.6295 12.8097 47 18.5326 47 24.5ZM24.5 15.125H24.52V15.145H24.5V15.125Z" stroke="#915A3C" stroke-width="4" stroke-linecap="round" stroke-linejoin="round"/>
</svg>
