<svg width="49" height="49" viewBox="0 0 49 49" fill="none" xmlns="http://www.w3.org/2000/svg">
<path d="M35.2684 7.36932L39.3171 3.31818C40.1611 2.47416 41.3058 2 42.4995 2C43.6931 2 44.8378 2.47416 45.6818 3.31818C46.5258 4.16219 47 5.30692 47 6.50053C47 7.69415 46.5258 8.83888 45.6818 9.68289L20.1966 35.1682C18.9278 36.4362 17.3631 37.3683 15.6438 37.8801L9.1999 39.8001L11.1199 33.3562C11.6317 31.6369 12.5638 30.0722 13.8318 28.8034L35.2684 7.36932ZM35.2684 7.36932L41.5995 13.7004M37.9995 30.2002V41.6001C37.9995 43.0322 37.4306 44.4057 36.4179 45.4184C35.4052 46.4311 34.0317 47 32.5996 47H7.39993C5.96778 47 4.59429 46.4311 3.5816 45.4184C2.56892 44.4057 2 43.0322 2 41.6001V16.4004C2 14.9683 2.56892 13.5948 3.5816 12.5821C4.59429 11.5694 5.96778 11.0005 7.39993 11.0005H18.7998" stroke="#915A3C" stroke-width="4" stroke-linecap="round" stroke-linejoin="round"/>
</svg>
