<svg width="15" height="20" viewBox="0 0 15 20" fill="none" xmlns="http://www.w3.org/2000/svg">
<path d="M11.8154 0C12.3677 0 12.8154 0.447715 12.8154 1C12.8153 1.55213 12.3676 2 11.8154 2H10.8057L11.5967 7.53809C11.993 7.75964 12.3707 8.01363 12.7188 8.30371C14.1366 9.48548 14.9785 11.1324 14.9785 12.8965C14.9783 13.4486 14.5307 13.8964 13.9785 13.8965H1C0.734877 13.8965 0.480486 13.7909 0.292969 13.6035C0.10551 13.4161 8.69748e-05 13.1616 0 12.8965C3.19642e-07 11.1324 0.84183 9.48548 2.25977 8.30371C2.60767 8.01379 2.98473 7.75956 3.38086 7.53809L4.17285 2H3.16309C2.61092 1.99999 2.16326 1.55213 2.16309 1C2.16309 0.44772 2.61081 6.96015e-06 3.16309 0H11.8154ZM5.28906 8.33008C5.24134 8.66308 5.02902 8.95051 4.72461 9.09375C4.28852 9.29898 3.89021 9.54984 3.54102 9.84082C2.83413 10.43 2.36443 11.1442 2.14453 11.8965H12.834C12.6141 11.1443 12.1443 10.43 11.4375 9.84082C11.0883 9.54986 10.69 9.29897 10.2539 9.09375C9.9495 8.95051 9.73718 8.66308 9.68945 8.33008L8.78516 2H6.19336L5.28906 8.33008Z" fill="white"/>
<path d="M7.48932 12.896V18.3037" stroke="white" stroke-width="2" stroke-linecap="round" stroke-linejoin="round"/>
</svg>
