<svg width="15" height="20" viewBox="0 0 15 20" fill="none" xmlns="http://www.w3.org/2000/svg">
<g clip-path="url(#clip0_227_60)">
<path d="M1.25023 1.25C1.25023 0.558594 1.80882 0 2.50023 0H12.5002C13.1916 0 13.7502 0.558594 13.7502 1.25C13.7502 1.94141 13.1916 2.5 12.5002 2.5H11.3479L11.7932 8.28906C13.2268 9.06641 14.3596 10.3672 14.8987 11.9883L14.9377 12.1055C15.0666 12.4883 15.0002 12.9063 14.7659 13.2305C14.5315 13.5547 14.1526 13.75 13.7502 13.75H1.25023C0.847886 13.75 0.472886 13.5586 0.234604 13.2305C-0.0036769 12.9023 -0.0661769 12.4844 0.0627293 12.1055L0.101792 11.9883C0.640854 10.3672 1.77367 9.06641 3.20726 8.28906L3.65257 2.5H2.50023C1.80882 2.5 1.25023 1.94141 1.25023 1.25ZM6.25023 15H8.75023V18.75C8.75023 19.4414 8.19164 20 7.50023 20C6.80882 20 6.25023 19.4414 6.25023 18.75V15Z" fill="white"/>
</g>
<defs>
<clipPath id="clip0_227_60">
<rect width="15" height="20" fill="white"/>
</clipPath>
</defs>
</svg>
