<svg width="28" height="28" viewBox="0 0 28 28" fill="none" xmlns="http://www.w3.org/2000/svg">
<path d="M11.4349 22.6533C13.9033 22.6533 16.2082 21.858 18.0818 20.5324L25.1301 27.5139C25.4572 27.838 25.8885 28 26.3346 28C27.3011 28 28 27.2635 28 26.3209C28 25.879 27.8513 25.4666 27.5242 25.1426L20.5204 18.1904C21.9926 16.2756 22.8699 13.9043 22.8699 11.3267C22.8699 5.09627 17.7249 0 11.4349 0C5.13011 0 0 5.09627 0 11.3267C0 17.5571 5.13011 22.6533 11.4349 22.6533ZM11.4349 20.2083C6.51301 20.2083 2.4684 16.1873 2.4684 11.3267C2.4684 6.46607 6.51301 2.44503 11.4349 2.44503C16.342 2.44503 20.4015 6.46607 20.4015 11.3267C20.4015 16.1873 16.342 20.2083 11.4349 20.2083Z" fill="#915A3C"/>
</svg>
