<svg width="54" height="54" viewBox="0 0 54 54" fill="none" xmlns="http://www.w3.org/2000/svg">
<path d="M12.7143 46.6429V44.8566C12.7143 38.9393 17.5112 34.1429 23.4286 34.1429H30.5714C36.4888 34.1429 41.2857 38.9393 41.2857 44.8566V46.6429M27 12.7143C23.0551 12.7143 19.8571 15.9123 19.8571 19.8571C19.8571 23.802 23.0551 27 27 27C30.9449 27 34.1429 23.802 34.1429 19.8571C34.1429 15.9123 30.9449 12.7143 27 12.7143ZM27 52C13.1929 52 2 40.8071 2 27C2 13.1929 13.1929 2 27 2C40.8071 2 52 13.1929 52 27C52 40.8071 40.8071 52 27 52Z" stroke="#915A3C" stroke-width="4" stroke-linecap="square"/>
</svg>
