<svg width="55" height="55" viewBox="0 0 55 55" fill="none" xmlns="http://www.w3.org/2000/svg">
<path d="M24.0625 18.0469H13.75V14.6094H24.0625V18.0469Z" fill="black"/>
<path d="M5.1571 8.59422C5.15685 7.6448 5.92643 6.875 6.87585 6.875H48.1259C49.0749 6.875 49.8443 7.64423 49.8446 8.59328L49.8479 24.0621C49.8481 25.0115 49.0785 25.7813 48.1291 25.7813H6.87912C5.93006 25.7813 5.16063 25.0121 5.16037 24.063L5.1571 8.59422ZM8.5974 22.3438H46.4099L46.4076 10.3125H8.59507L8.5974 22.3438Z" fill="black"/>
<path d="M13.7504 40.3906H24.0629V36.9531H13.7504V40.3906Z" fill="black"/>
<path d="M5.16083 30.9375C5.16083 29.9883 5.93035 29.2188 6.87958 29.2188H48.1296C49.0788 29.2188 49.8483 29.9883 49.8483 30.9375V46.4062C49.8483 47.3555 49.0788 48.125 48.1296 48.125H6.87959C5.93035 48.125 5.16083 47.3555 5.16083 46.4062V30.9375ZM8.59833 44.6875H46.4108V32.6563H8.59833V44.6875Z" fill="black"/>
</svg>
