<svg width="49" height="57" viewBox="0 0 49 57" fill="none" xmlns="http://www.w3.org/2000/svg">
<path d="M49 32.2856V30.2856H45V32.2856H49ZM24.5 11.5713H26.5V7.5713H24.5V11.5713ZM28.25 9.5713L29.6709 10.9788L31.0651 9.57125L29.6709 8.16379L28.25 9.5713ZM47 32.2856H45C45 43.7411 35.8013 53 24.5 53V55V57C38.0462 57 49 45.9144 49 32.2856H47ZM24.5 55V53C13.1987 53 4 43.7411 4 32.2856H2H0C0 45.9144 10.9538 57 24.5 57V55ZM2 32.2856H4C4 20.8302 13.1987 11.5713 24.5 11.5713V9.5713V7.5713C10.9538 7.5713 0 18.6569 0 32.2856H2ZM20.75 2L19.3291 3.40751L26.8291 10.9788L28.25 9.5713L29.6709 8.16379L22.1709 0.592492L20.75 2ZM28.25 9.5713L26.8291 8.16383L19.3291 15.7356L20.75 17.1431L22.1709 18.5505L29.6709 10.9788L28.25 9.5713Z" fill="black"/>
</svg>
