<svg width="51" height="50" viewBox="0 0 51 50" fill="none" xmlns="http://www.w3.org/2000/svg">
<path d="M22.6614 50H27.3854C29.1862 50 30.566 48.9008 30.9869 47.1703L31.9925 42.797L32.7409 42.5398L36.5529 44.8784C38.073 45.8372 39.8269 45.6034 41.1132 44.3171L44.3873 41.0664C45.6735 39.7802 45.9074 38.0028 44.9486 36.5061L42.5631 32.7175L42.8438 32.0159L47.217 30.9869C48.9242 30.566 50.0468 29.1628 50.0468 27.3854V22.7549C50.0468 20.9775 48.9476 19.5744 47.217 19.1534L42.8906 18.101L42.5865 17.3527L44.9719 13.5641C45.9308 12.0674 45.6969 10.3134 44.4107 9.00374L41.1366 5.72965C39.8737 4.46679 38.1197 4.23293 36.5996 5.16838L32.7877 7.50702L31.9925 7.20299L30.9869 2.82975C30.566 1.09916 29.1862 0 27.3854 0H22.6614C20.8606 0 19.4808 1.09916 19.0599 2.82975L18.0309 7.20299L17.2357 7.50702L13.4471 5.16838C11.927 4.23293 10.1497 4.46679 8.88681 5.72965L5.63611 9.00374C4.34986 10.3134 4.09261 12.0674 5.07484 13.5641L7.43686 17.3527L7.15622 18.101L2.82975 19.1534C1.09916 19.5744 0 20.9775 0 22.7549V27.3854C0 29.1628 1.12254 30.566 2.82975 30.9869L7.20299 32.0159L7.46024 32.7175L5.09822 36.5061C4.116 38.0028 4.37325 39.7802 5.6595 41.0664L8.9102 44.3171C10.1964 45.6034 11.9738 45.8372 13.4939 44.8784L17.2825 42.5398L18.0309 42.797L19.0599 47.1703C19.4808 48.9008 20.8606 50 22.6614 50ZM23.0355 46.3517C22.638 46.3517 22.4275 46.188 22.3573 45.8138L20.9542 40.014C19.5276 39.6632 18.1946 39.102 17.189 38.4705L12.0907 41.6043C11.8101 41.8148 11.5061 41.768 11.2254 41.4874L8.46586 38.7278C8.20861 38.4705 8.18522 38.1899 8.37231 37.8625L11.5061 32.811C10.9682 31.8288 10.3602 30.4958 9.98597 29.0692L4.18616 27.6894C3.81197 27.6193 3.64827 27.4088 3.64827 27.0112V23.1057C3.64827 22.6848 3.78859 22.4977 4.18616 22.4275L9.96258 21.0243C10.3368 19.5042 11.0384 18.1244 11.4593 17.2591L8.34892 12.2077C8.13845 11.8569 8.16183 11.5762 8.41908 11.2956L11.2021 8.58279C11.4827 8.30215 11.7399 8.25538 12.0907 8.46586L17.1422 11.5295C18.1478 10.9682 19.5744 10.3835 20.9776 9.98597L22.3573 4.18616C22.4275 3.81197 22.638 3.64827 23.0355 3.64827H27.0112C27.4088 3.64827 27.6193 3.81197 27.666 4.18616L29.0926 10.0327C30.5426 10.4069 31.8054 10.9916 32.8578 11.5529L37.9327 8.46586C38.3068 8.25538 38.5407 8.30215 38.8447 8.58279L41.6043 11.2956C41.8849 11.5762 41.8849 11.8569 41.6745 12.2077L38.5641 17.2591C39.0084 18.1244 39.6866 19.5042 40.0608 21.0243L45.8606 22.4275C46.2348 22.4977 46.3985 22.6848 46.3985 23.1057V27.0112C46.3985 27.4088 46.2114 27.6193 45.8606 27.6894L40.0374 29.0692C39.6632 30.4958 39.0786 31.8288 38.5173 32.811L41.6511 37.8625C41.8382 38.1899 41.8382 38.4705 41.5575 38.7278L38.8213 41.4874C38.5173 41.768 38.2367 41.8148 37.9327 41.6043L32.8344 38.4705C31.8288 39.102 30.5192 39.6632 29.0926 40.014L27.666 45.8138C27.6193 46.188 27.4088 46.3517 27.0112 46.3517H23.0355ZM25.0234 33.9336C29.9111 33.9336 33.9336 29.9111 33.9336 25C33.9336 20.1356 29.9111 16.1132 25.0234 16.1132C20.1356 16.1132 16.0898 20.1356 16.0898 25C16.0898 29.8877 20.1123 33.9336 25.0234 33.9336ZM25.0234 30.3087C22.1235 30.3087 19.7381 27.9233 19.7381 25C19.7381 22.1235 22.1235 19.7381 25.0234 19.7381C27.8765 19.7381 30.2619 22.1235 30.2619 25C30.2619 27.8999 27.8765 30.3087 25.0234 30.3087Z" fill="#915A3C"/>
</svg>
